<?xml version="1.0"?>
<svg xmlns="http://www.w3.org/2000/svg" xmlns:xlink="http://www.w3.org/1999/xlink" version="1.1" id="Capa_1" x="0px" y="0px" viewBox="0 0 511.997 511.997" style="enable-background:new 0 0 511.997 511.997;" xml:space="preserve" width="512px" height="512px" class=""><g><g>
	<g>
		<path d="M400.975,111.016C243.03-46.92,18.727,9.79,16.479,10.388c-2.983,0.786-5.307,3.102-6.093,6.085    c-0.59,2.248-57.309,226.551,100.636,384.504c91.646,91.646,205.631,111.019,285.62,111.019c57.864,0,97.936-10.144,98.876-10.392    c2.983-0.786,5.307-3.102,6.093-6.085C502.2,493.264,558.919,268.961,400.975,111.016z M486.22,486.214    c-33.149,7.119-225.004,40.781-363.114-97.329S18.658,58.92,25.777,25.771c33.149-7.11,225.004-40.772,363.114,97.329    C527.001,261.21,493.338,453.064,486.22,486.214z" data-original="#000000" class="active-path" data-old_color="#FDFCFC" fill="#FFFFFF"/>
	</g>
</g><g>
	<g>
		<path d="M364.595,329.346L182.653,147.404c-9.717-9.717-25.526-9.717-35.243,0c-9.717,9.708-9.717,25.518,0,35.243    l181.942,181.942c4.863,4.863,11.238,7.29,17.622,7.29c6.384,0,12.759-2.436,17.622-7.29    C374.312,354.881,374.312,339.071,364.595,329.346z M352.511,352.505c-3.059,3.051-8.025,3.051-11.075,0L159.494,170.564    c-3.051-3.059-3.051-8.025,0-11.075c1.53-1.53,3.529-2.29,5.538-2.29c2,0,4.008,0.761,5.538,2.29L352.511,341.43    C355.562,344.489,355.562,349.454,352.511,352.505z" data-original="#000000" class="active-path" data-old_color="#FDFCFC" fill="#FFFFFF"/>
	</g>
</g><g>
	<g>
		<path d="M213.094,12.662c-1.231-2.119-3.299-3.598-5.7-4.094c-15.374-3.111-31.432-5.452-47.737-6.948    c-3.461-0.35-6.717,1.461-8.332,4.504c-13.673,25.8-35.03,53.301-63.462,81.733c-28.441,28.432-55.941,49.78-81.733,63.462    c-3.042,1.624-4.82,4.905-4.504,8.332c1.487,16.271,3.829,32.329,6.956,47.737c0.487,2.393,1.974,4.461,4.093,5.692    c1.316,0.761,2.794,1.154,4.281,1.154c0.906,0,1.812-0.137,2.692-0.436c35.653-11.81,74.358-38.431,115.036-79.118    c40.687-40.695,67.307-79.4,79.126-115.044C214.581,17.319,214.316,14.781,213.094,12.662z M122.602,122.596    c-35.217,35.218-68.512,59.266-99.123,71.597c-1.769-9.982-3.205-20.194-4.281-30.526c25.8-14.494,52.933-35.901,80.75-63.727    c27.817-27.817,49.224-54.95,63.718-80.758c10.358,1.085,20.57,2.512,30.534,4.281C181.867,54.066,157.828,87.37,122.602,122.596z    " data-original="#000000" class="active-path" data-old_color="#FDFCFC" fill="#FFFFFF"/>
	</g>
</g><g>
	<g>
		<path d="M510.37,352.334c-1.487-16.271-3.829-32.329-6.956-47.737c-0.487-2.393-1.974-4.461-4.093-5.692    c-2.119-1.222-4.649-1.487-6.973-0.718c-35.653,11.819-74.358,38.431-115.036,79.118c-40.687,40.695-67.307,79.4-79.126,115.044    c-0.769,2.316-0.504,4.854,0.718,6.973c1.231,2.119,3.299,3.598,5.7,4.094c15.374,3.111,31.432,5.452,47.737,6.948    c0.265,0.026,0.53,0.034,0.786,0.034c3.136,0,6.05-1.726,7.546-4.538c13.673-25.8,35.03-53.301,63.462-81.733    c28.441-28.432,55.941-49.78,81.733-63.462C508.909,359.043,510.686,355.761,510.37,352.334z M412.05,412.044    c-27.817,27.817-49.224,54.95-63.718,80.758c-10.358-1.085-20.57-2.513-30.534-4.281c12.34-30.603,36.38-63.906,71.606-99.123    c35.218-35.218,68.512-59.266,99.124-71.597c1.769,9.982,3.205,20.194,4.281,30.526    C467.009,362.82,439.867,384.227,412.05,412.044z" data-original="#000000" class="active-path" data-old_color="#FDFCFC" fill="#FFFFFF"/>
	</g>
</g><g>
	<g>
		<path d="M221.52,151.549c-3.333-3.341-8.742-3.341-12.084,0l-57.89,57.881c-3.341,3.341-3.341,8.742,0,12.084    c1.666,1.666,3.854,2.504,6.042,2.504s4.375-0.837,6.042-2.504l57.89-57.881C224.861,160.291,224.861,154.89,221.52,151.549z" data-original="#000000" class="active-path" data-old_color="#FDFCFC" fill="#FFFFFF"/>
	</g>
</g><g>
	<g>
		<path d="M256.25,186.279c-3.333-3.341-8.742-3.341-12.084,0l-57.89,57.881c-3.341,3.341-3.341,8.742,0,12.084    c1.666,1.666,3.854,2.504,6.042,2.504s4.375-0.829,6.042-2.504l57.89-57.881C259.592,195.022,259.592,189.621,256.25,186.279z" data-original="#000000" class="active-path" data-old_color="#FDFCFC" fill="#FFFFFF"/>
	</g>
</g><g>
	<g>
		<path d="M360.459,290.488c-3.333-3.341-8.742-3.341-12.084,0l-57.89,57.881c-3.341,3.341-3.341,8.742,0,12.084    c1.666,1.666,3.854,2.504,6.042,2.504c2.179,0,4.367-0.837,6.042-2.504l57.89-57.881C363.8,299.23,363.8,293.829,360.459,290.488z    " data-original="#000000" class="active-path" data-old_color="#FDFCFC" fill="#FFFFFF"/>
	</g>
</g><g>
	<g>
		<path d="M325.72,255.749c-3.333-3.341-8.742-3.341-12.084,0l-57.89,57.881c-3.341,3.341-3.341,8.742,0,12.084    c1.666,1.666,3.854,2.504,6.042,2.504s4.375-0.838,6.042-2.504l57.89-57.881C329.061,264.491,329.061,259.09,325.72,255.749z" data-original="#000000" class="active-path" data-old_color="#FDFCFC" fill="#FFFFFF"/>
	</g>
</g><g>
	<g>
		<path d="M290.989,221.018c-3.333-3.341-8.742-3.341-12.084,0l-57.89,57.881c-3.341,3.341-3.341,8.742,0,12.084    c1.666,1.666,3.854,2.504,6.042,2.504s4.375-0.837,6.042-2.504l57.89-57.881C294.331,229.761,294.331,224.36,290.989,221.018z" data-original="#000000" class="active-path" data-old_color="#FDFCFC" fill="#FFFFFF"/>
	</g>
</g></g> </svg>
